#N canvas 708 572 1202 676 12;
#X msg 15 55 \; pd dsp \$1, f 10;
#X obj 17 27 tgl 19 0 empty empty empty 0 -10 0 12 #fcfcfc #000000 #000000 0 1;
#X text 12 6 DSP TOGGLE;
#X text 169 539 creation arguments are OSC address;
#X text 159 497 set message to change OSC address;
#X floatatom 23 453 5 0 0 0 - - - 0;
#N canvas 1898 459 623 462 oscReceive 1;
#X obj 55 184 netreceive -u -b;
#X msg 78 143 listen 0;
#X text 152 143 stop listening;
#X text 64 58 packets from network;
#X text 173 177 UDP packets \, binary output, f 13;
#X obj 45 314 print;
#X obj 45 272 oscparse;
#X text 150 114 listen on port 8000;
#X obj 177 269 oscparse;
#X obj 177 293 list trim;
#X text 241 267 Parse the OSC message;
#X obj 177 319 route unity;
#X obj 66 84 loadbang;
#X floatatom 134 392 5 0 0 0 - - - 0;
#X floatatom 262 397 5 0 0 0 - - - 0;
#X obj 136 361 route robodeath;
#X obj 258 362 route laser;
#X obj 261 425 s osclaser;
#X obj 134 422 s oscrobodeath;
#X msg 66 115 listen 8000;
#X connect 0 0 6 0;
#X connect 0 0 8 0;
#X connect 1 0 0 0;
#X connect 6 0 5 0;
#X connect 8 0 9 0;
#X connect 9 0 11 0;
#X connect 11 0 15 0;
#X connect 11 0 16 0;
#X connect 12 0 19 0;
#X connect 13 0 18 0;
#X connect 14 0 17 0;
#X connect 15 0 13 0;
#X connect 16 0 14 0;
#X connect 19 0 0 0;
#X restore 27 401 pd oscReceive;
#X obj 24 537 oscformat PD message;
#X msg 56 498 set PD message;
#N canvas 443 1138 450 419 oscSend 1;
#X msg 158 207 disconnect;
#X obj 61 253 netsend -u -b;
#X obj 59 55 list prepend send;
#X obj 59 80 list trim;
#X obj 59 29 r oscOut;
#X text 312 160 send to port 8001;
#X obj 147 108 loadbang;
#X msg 147 148 connect localhost 8001;
#X msg 150 175 connect 127.0.0.1 8001;
#X connect 0 0 1 0;
#X connect 2 0 3 0;
#X connect 3 0 1 0;
#X connect 4 0 2 0;
#X connect 6 0 7 0;
#X connect 7 0 1 0;
#X connect 8 0 1 0;
#X restore 27 377 pd oscSend;
#X obj 24 572 s oscOut;
#N canvas 991 120 1595 1208 laser 1;
#X msg 420 127 1 0 \, 0 70;
#X obj 152 164 line~;
#X obj 409 173 line~;
#X obj 137 256 phasor~;
#X obj 303 292 *~;
#X obj 303 333 *~ 0.5;
#X obj 262 262 +~;
#X obj 309 162 line~;
#X msg 300 131 200 0 \, 400 70;
#X text 416 87 falloff;
#X text 36 146 main voice;
#X text 297 68 2nd voice;
#X obj 307 191 osc~;
#X obj 205 36 inlet;
#X obj 301 384 outlet~;
#X obj 214 66 bng 19 250 50 0 empty empty empty 0 -10 0 12 #fcfcfc #000000 #000000;
#X obj 220 155 random 500;
#X obj 177 213 +~;
#X msg 152 128 2000 0 \, 200 70;
#X connect 0 0 2 0;
#X connect 1 0 17 0;
#X connect 2 0 4 1;
#X connect 3 0 6 0;
#X connect 4 0 5 0;
#X connect 5 0 14 0;
#X connect 6 0 4 0;
#X connect 7 0 12 0;
#X connect 8 0 7 0;
#X connect 12 0 6 1;
#X connect 13 0 15 0;
#X connect 15 0 18 0;
#X connect 15 0 8 0;
#X connect 15 0 0 0;
#X connect 15 0 16 0;
#X connect 16 0 17 1;
#X connect 17 0 3 0;
#X connect 18 0 1 0;
#X restore 270 138 pd laser;
#X obj 434 330 dac~;
#X obj 270 77 r osclaser;
#X obj 423 74 r oscrobodeath;
#N canvas 894 439 915 481 robodeath 0;
#X obj 281 234 *~;
#X obj 300 148 bp~ 400 3;
#X obj 300 111 noise~;
#X obj 301 182 clip~ -0.4 0.4;
#X obj 440 223 vline~;
#X obj 66 190 line~;
#X obj 63 223 osc~;
#X obj 296 305 *~ 0.1;
#X msg 79 150 200 0 \, 800 150 \, 0 3000;
#X obj 185 259 +~;
#X msg 444 135 10 20 0 \, 0 3000 100;
#X obj 544 239 line~;
#X obj 258 279 +~;
#X obj 549 265 osc~;
#X obj 458 51 tgl 19 0 empty empty empty 0 -10 0 12 #fcfcfc #000000 #000000 0 1;
#X obj 542 60 line;
#X obj 551 337 *~;
#X obj 635 260 line~;
#X obj 539 311 *~ 0.1;
#X msg 649 216 10 0 \, 0 2600;
#X msg 541 23 20 0 \, 0 3000;
#X obj 542 84 metro 10;
#X msg 541 193 2000 0 \, 0 20;
#X obj 182 27 inlet;
#X obj 295 371 outlet~;
#X connect 0 0 9 1;
#X connect 1 0 3 0;
#X connect 2 0 1 0;
#X connect 3 0 0 0;
#X connect 4 0 0 1;
#X connect 5 0 6 0;
#X connect 6 0 9 0;
#X connect 7 0 24 0;
#X connect 8 0 5 0;
#X connect 9 0 12 0;
#X connect 10 0 4 0;
#X connect 11 0 13 0;
#X connect 12 0 7 0;
#X connect 13 0 18 0;
#X connect 14 0 21 0;
#X connect 15 0 21 0;
#X connect 16 0 12 1;
#X connect 17 0 16 1;
#X connect 18 0 16 0;
#X connect 19 0 17 0;
#X connect 20 0 15 0;
#X connect 21 0 22 0;
#X connect 22 0 11 0;
#X connect 23 0 8 0;
#X connect 23 0 10 0;
#X connect 23 0 20 0;
#X connect 23 0 19 0;
#X restore 432 141 pd robodeath;
#X connect 1 0 0 0;
#X connect 5 0 7 0;
#X connect 7 0 10 0;
#X connect 8 0 7 0;
#X connect 11 0 12 0;
#X connect 11 0 12 1;
#X connect 13 0 11 0;
#X connect 14 0 15 0;
#X connect 15 0 12 0;
#X connect 15 0 12 1;
