#N canvas 1356 364 1202 676 12;
#X msg 15 55 \; pd dsp \$1, f 10;
#X obj 17 27 tgl 19 0 empty empty empty 0 -10 0 12 #fcfcfc #000000 #000000 0 1;
#X text 12 6 DSP TOGGLE;
#X text 169 539 creation arguments are OSC address;
#X text 159 497 set message to change OSC address;
#X floatatom 23 453 5 0 0 0 - - - 0;
#N canvas -1051 436 623 462 oscReceive 0;
#X obj 55 184 netreceive -u -b;
#X msg 78 143 listen 0;
#X text 152 143 stop listening;
#X text 64 58 packets from network;
#X text 173 177 UDP packets \, binary output, f 13;
#X obj 45 314 print;
#X obj 45 272 oscparse;
#X text 150 114 listen on port 8000;
#X obj 177 269 oscparse;
#X obj 177 293 list trim;
#X text 241 267 Parse the OSC message;
#X obj 177 319 route unity;
#X obj 66 84 loadbang;
#X obj 136 361 route robodeath;
#X obj 258 362 route laser;
#X obj 261 425 s osclaser;
#X obj 134 422 s oscrobodeath;
#X msg 66 115 listen 8000;
#X obj 364 363 route music;
#X floatatom 364 395 5 0 0 0 - - - 0;
#X obj 363 424 s oscmusic;
#X obj 482 361 route reload;
#X obj 483 425 s oscreload;
#X floatatom 485 398 5 0 0 0 - - - 0;
#X floatatom 262 397 5 0 0 0 - - - 0;
#X floatatom 134 392 5 0 0 0 - - - 0;
#X connect 0 0 6 0;
#X connect 0 0 8 0;
#X connect 1 0 0 0;
#X connect 6 0 5 0;
#X connect 8 0 9 0;
#X connect 9 0 11 0;
#X connect 11 0 13 0;
#X connect 11 0 14 0;
#X connect 11 0 18 0;
#X connect 11 0 21 0;
#X connect 12 0 17 0;
#X connect 13 0 25 0;
#X connect 14 0 24 0;
#X connect 17 0 0 0;
#X connect 18 0 19 0;
#X connect 19 0 20 0;
#X connect 21 0 23 0;
#X connect 23 0 22 0;
#X connect 24 0 15 0;
#X connect 25 0 16 0;
#X restore 27 401 pd oscReceive;
#X obj 24 537 oscformat PD message;
#X msg 56 498 set PD message;
#N canvas 410 700 450 419 oscSend 0;
#X msg 158 207 disconnect;
#X obj 61 253 netsend -u -b;
#X obj 59 55 list prepend send;
#X obj 59 80 list trim;
#X obj 59 29 r oscOut;
#X text 312 160 send to port 8001;
#X obj 147 108 loadbang;
#X msg 147 148 connect localhost 8001;
#X msg 150 175 connect 127.0.0.1 8001;
#X connect 0 0 1 0;
#X connect 2 0 3 0;
#X connect 3 0 1 0;
#X connect 4 0 2 0;
#X connect 6 0 7 0;
#X connect 7 0 1 0;
#X connect 8 0 1 0;
#X restore 27 377 pd oscSend;
#X obj 24 572 s oscOut;
#N canvas 606 102 1595 1208 laser 0;
#X msg 420 127 1 0 \, 0 70;
#X obj 152 164 line~;
#X obj 409 173 line~;
#X obj 137 256 phasor~;
#X obj 303 292 *~;
#X obj 303 333 *~ 0.5;
#X obj 262 262 +~;
#X obj 309 162 line~;
#X msg 300 131 200 0 \, 400 70;
#X text 416 87 falloff;
#X text 36 146 main voice;
#X text 297 68 2nd voice;
#X obj 307 191 osc~;
#X obj 205 36 inlet;
#X obj 301 384 outlet~;
#X obj 214 66 bng 19 250 50 0 empty empty empty 0 -10 0 12 #fcfcfc #000000 #000000;
#X obj 220 155 random 500;
#X obj 177 213 +~;
#X msg 152 128 2000 0 \, 200 70;
#X connect 0 0 2 0;
#X connect 1 0 17 0;
#X connect 2 0 4 1;
#X connect 3 0 6 0;
#X connect 4 0 5 0;
#X connect 5 0 14 0;
#X connect 6 0 4 0;
#X connect 7 0 12 0;
#X connect 8 0 7 0;
#X connect 12 0 6 1;
#X connect 13 0 15 0;
#X connect 15 0 18 0;
#X connect 15 0 8 0;
#X connect 15 0 0 0;
#X connect 15 0 16 0;
#X connect 16 0 17 1;
#X connect 17 0 3 0;
#X connect 18 0 1 0;
#X restore 270 138 pd laser;
#X obj 434 330 dac~;
#X obj 270 77 r osclaser;
#X obj 480 78 r oscrobodeath;
#N canvas 894 439 915 481 robodeath 0;
#X obj 281 234 *~;
#X obj 300 148 bp~ 400 3;
#X obj 300 111 noise~;
#X obj 301 182 clip~ -0.4 0.4;
#X obj 440 223 vline~;
#X obj 66 190 line~;
#X obj 63 223 osc~;
#X obj 296 305 *~ 0.1;
#X msg 79 150 200 0 \, 800 150 \, 0 3000;
#X obj 185 259 +~;
#X msg 444 135 10 20 0 \, 0 3000 100;
#X obj 544 239 line~;
#X obj 258 279 +~;
#X obj 549 265 osc~;
#X obj 458 51 tgl 19 0 empty empty empty 0 -10 0 12 #fcfcfc #000000 #000000 0 1;
#X obj 542 60 line;
#X obj 551 337 *~;
#X obj 635 260 line~;
#X obj 539 311 *~ 0.1;
#X msg 649 216 10 0 \, 0 2600;
#X msg 541 23 20 0 \, 0 3000;
#X obj 542 84 metro 10;
#X msg 541 193 2000 0 \, 0 20;
#X obj 182 27 inlet;
#X obj 295 371 outlet~;
#X connect 0 0 9 1;
#X connect 1 0 3 0;
#X connect 2 0 1 0;
#X connect 3 0 0 0;
#X connect 4 0 0 1;
#X connect 5 0 6 0;
#X connect 6 0 9 0;
#X connect 7 0 24 0;
#X connect 8 0 5 0;
#X connect 9 0 12 0;
#X connect 10 0 4 0;
#X connect 11 0 13 0;
#X connect 12 0 7 0;
#X connect 13 0 18 0;
#X connect 14 0 21 0;
#X connect 15 0 21 0;
#X connect 16 0 12 1;
#X connect 17 0 16 1;
#X connect 18 0 16 0;
#X connect 19 0 17 0;
#X connect 20 0 15 0;
#X connect 21 0 22 0;
#X connect 22 0 11 0;
#X connect 23 0 8 0;
#X connect 23 0 10 0;
#X connect 23 0 20 0;
#X connect 23 0 19 0;
#X restore 484 145 pd robodeath;
#X obj 597 79 r oscmusic;
#N canvas 763 0 1557 1340 bgmusic 0;
#X obj 720 446 noise~;
#X obj 701 592 +~;
#X obj 698 544 *~ 0.1;
#X obj 783 482 +~ 800;
#X obj 733 507 vcf~ 5;
#X obj 802 442 *~ 40;
#X obj 807 409 osc~ 200;
#X text 880 513 <- music;
#X obj 768 608 *~;
#X obj 857 456 vsl 19 162 0 1 0 0 empty empty empty 0 -9 0 12 #fcfcfc #000000 #000000 0 1;
#X text 888 457 Volume Slider;
#X obj 227 891 osc~ 440;
#X obj 439 402 vsl 19 162 0 1 0 0 empty empty empty 0 -9 0 12 #fcfcfc #000000 #000000 0 1;
#X obj 349 925 *~;
#X msg 529 514 1;
#X msg 483 512 0;
#X obj 496 592 sel 0 1;
#X msg 496 653 0;
#X floatatom 499 708 5 0 0 0 - - - 0;
#X obj 64 571 metro 500;
#X msg 532 656 0.2;
#X obj 66 664 f;
#X obj 115 664 + 1;
#X floatatom 101 707 5 0 0 0 - - - 0;
#X obj 64 746 % 4;
#X floatatom 202 733 5 0 0 0 - - - 0;
#X msg 279 523 1;
#X msg 282 559 2;
#X floatatom 91 775 5 0 0 0 - - - 0;
#X obj 118 947 mtof;
#X text 466 407 Volume Slider;
#X text 460 488 Volume OFF / ON;
#X msg 195 659 2;
#X msg 228 659 4;
#X obj 213 611 sel 1 2;
#X text 319 522 2 Notes;
#X text 319 560 4 Notes;
#X text 190 861 comment;
#X text 449 347 comment;
#X obj 632 842 bng 19 250 50 0 empty empty empty 0 -10 0 12 #fcfcfc #000000 #000000;
#X msg 630 882 0 \, 1 200;
#X obj 630 904 line~;
#X obj 629 927 sqrt~;
#X obj 629 951 *~ 20;
#X obj 630 979 -~ 0.25;
#X obj 629 1004 cos~;
#X obj 715 847 vsl 19 162 0 1 0 0 empty empty empty 0 -9 0 12 #fcfcfc #000000 #000000 0 1;
#X text 747 896 Volume Slider;
#X obj 638 1059 *~;
#X obj 907 841 bng 19 250 50 0 empty empty empty 0 -10 0 12 #fcfcfc #000000 #000000;
#X obj 910 879 t b b;
#X msg 910 914 1 \, 0 100;
#X obj 912 946 line~;
#X obj 916 972 pow~ 4;
#X obj 982 974 osc~ 200;
#X obj 927 1009 *~;
#X obj 1065 950 line~;
#X obj 1069 976 pow~ 4;
#X obj 1066 1020 *~;
#X obj 971 1055 +~;
#X msg 1063 918 1 \, 0 200;
#X obj 1134 980 noise~;
#X obj 1011 1134 *~;
#X obj 1045 747 vsl 19 162 0 1 0 0 empty empty empty 0 -9 0 12 #fcfcfc #000000 #000000 0 1;
#X text 1086 819 Volume Slider;
#X obj 742 773 random 2;
#X obj 758 810 sel 0 1;
#X obj 740 749 metro 130;
#X floatatom 147 579 5 0 0 0 - - - 0;
#X floatatom 604 322 5 0 0 0 - - - 0;
#X obj 477 170 vsl 19 162 80 150 0 0 empty empty empty 0 -9 0 12 #fcfcfc #000000 #000000 0 1;
#X text 525 151 Metronome Speed;
#X floatatom 122 868 5 0 0 0 - - - 0;
#X floatatom 170 861 5 0 0 0 - - - 0;
#X floatatom 220 859 5 0 0 0 - - - 0;
#X obj 107 819 sel 0 1 2 3;
#X floatatom 68 874 5 0 0 0 - - - 0;
#X obj 671 689 inlet;
#X obj 537 1229 outlet~;
#X connect 0 0 4 0;
#X connect 1 0 8 0;
#X connect 2 0 1 0;
#X connect 3 0 4 1;
#X connect 4 0 2 0;
#X connect 5 0 3 0;
#X connect 6 0 5 0;
#X connect 9 0 8 1;
#X connect 11 0 13 0;
#X connect 12 0 13 1;
#X connect 13 0 78 0;
#X connect 14 0 16 0;
#X connect 15 0 16 0;
#X connect 16 0 17 0;
#X connect 16 1 20 0;
#X connect 16 2 20 0;
#X connect 17 0 18 0;
#X connect 18 0 13 1;
#X connect 19 0 21 0;
#X connect 20 0 18 0;
#X connect 21 0 22 0;
#X connect 21 0 23 0;
#X connect 22 0 21 1;
#X connect 23 0 24 0;
#X connect 24 0 28 0;
#X connect 25 0 24 1;
#X connect 26 0 34 0;
#X connect 27 0 34 0;
#X connect 28 0 75 0;
#X connect 29 0 11 0;
#X connect 32 0 25 0;
#X connect 33 0 25 0;
#X connect 34 0 32 0;
#X connect 34 1 33 0;
#X connect 39 0 40 0;
#X connect 40 0 41 0;
#X connect 41 0 42 0;
#X connect 42 0 43 0;
#X connect 43 0 44 0;
#X connect 44 0 45 0;
#X connect 45 0 48 0;
#X connect 46 0 48 1;
#X connect 48 0 78 0;
#X connect 49 0 50 0;
#X connect 50 0 51 0;
#X connect 50 1 60 0;
#X connect 51 0 52 0;
#X connect 52 0 53 0;
#X connect 53 0 55 0;
#X connect 54 0 55 1;
#X connect 55 0 59 0;
#X connect 56 0 57 0;
#X connect 57 0 58 0;
#X connect 58 0 59 1;
#X connect 59 0 62 0;
#X connect 60 0 56 0;
#X connect 61 0 58 1;
#X connect 62 0 78 0;
#X connect 63 0 62 1;
#X connect 65 0 66 0;
#X connect 66 0 39 0;
#X connect 66 1 49 0;
#X connect 67 0 65 0;
#X connect 68 0 19 1;
#X connect 69 0 68 0;
#X connect 69 0 67 1;
#X connect 70 0 69 0;
#X connect 72 0 29 0;
#X connect 73 0 29 0;
#X connect 74 0 29 0;
#X connect 75 0 76 0;
#X connect 75 1 72 0;
#X connect 75 2 73 0;
#X connect 75 3 74 0;
#X connect 76 0 29 0;
#X connect 77 0 67 0;
#X connect 77 0 19 0;
#X restore 598 144 pd bgmusic;
#N canvas 166 361 1176 705 overheat 1;
#X obj 255 193 noise~;
#X obj 222 278 *~;
#X obj 404 83 select 1 0;
#X obj 256 242 *~ 0.5;
#X obj 256 219 hip~ 5000;
#X obj 194 182 vline~;
#X msg 211 159 0 100;
#X obj 525 200 hip~ 800;
#X obj 478 484 *~ 0.5;
#X obj 398 340 +~;
#X obj 499 281 *~ 0.05;
#X msg 613 121 0 50;
#X obj 760 189 phasor~;
#X obj 761 144 vline~;
#X msg 761 117 250 25 \, 500 25 100 \, 250 25 200 \, 1000 25 300 \, 0 5 400;
#X obj 761 87 bng 19 250 50 0 empty empty empty 0 -10 0 12 #fcfcfc #000000 #000000;
#X obj 524 146 vline~;
#X obj 525 174 osc~;
#X obj 759 240 *~ 0.1;
#X obj 761 394 phasor~;
#X obj 762 358 vline~;
#X obj 762 301 bng 19 250 50 0 empty empty empty 0 -10 0 12 #fcfcfc #000000 #000000;
#X obj 762 437 *~ 0.1;
#X obj 621 326 +~;
#X obj 479 434 +~;
#X msg 762 331 200 25 \, 100 25 75 \, 200 25 150 \, 100 25 225 \, 0 5 300;
#X msg 445 120 500 50 \, 0 10000 100;
#X msg 197 121 0.5 15 \, 0.3 50 30 \, 0.1 3000 150;
#X text 358 17 Overheat Hiss Toggle;
#X text 723 65 Fully Charged;
#X text 726 276 Full Overheat;
#X obj 477 535 outlet~;
#X obj 404 51 inlet;
#N canvas 0 23 740 505 reverb 0;
#X obj 162 49 inlet~;
#X obj 144 364 outlet~;
#X floatatom 444 156 0 0 120 0 - - - 0;
#X text 485 156 level \, dB;
#X floatatom 472 173 0 0 100 0 - - - 0;
#X text 513 173 liveness \, 0-100;
#X floatatom 507 197 4 0 5000 0 - - - 0;
#X floatatom 542 220 0 0 100 0 - - - 0;
#X text 555 195 crossover frequency \, Hz.;
#X text 578 222 HF damping \, percent;
#X obj 235 233 rev3~ 100 90 3000 20;
#X obj 247 331 *~;
#X floatatom 317 299 5 0 0 0 - - - 0;
#X obj 26 288 *~;
#X floatatom 66 261 5 0 0 0 - - - 0;
#X text 355 299 wet reverb signal;
#X text 103 264 "dry" signal;
#X floatatom 410 59 5 0 0 0 - - - 0;
#X obj 250 87 expr 1 - $f1;
#X msg 410 33 0.1;
#X obj 410 7 loadbang;
#X connect 0 0 13 0;
#X connect 0 0 10 0;
#X connect 2 0 10 2;
#X connect 4 0 10 3;
#X connect 6 0 10 4;
#X connect 7 0 10 5;
#X connect 10 0 11 0;
#X connect 10 1 11 0;
#X connect 10 2 11 0;
#X connect 10 3 11 0;
#X connect 11 0 1 0;
#X connect 12 0 11 1;
#X connect 13 0 1 0;
#X connect 14 0 13 1;
#X connect 17 0 12 0;
#X connect 17 0 18 0;
#X connect 18 0 14 0;
#X connect 19 0 17 0;
#X connect 20 0 19 0;
#X restore 478 509 pd reverb;
#X connect 0 0 4 0;
#X connect 1 0 9 0;
#X connect 2 0 27 0;
#X connect 2 0 26 0;
#X connect 2 1 6 0;
#X connect 2 1 11 0;
#X connect 3 0 1 1;
#X connect 4 0 3 0;
#X connect 5 0 1 0;
#X connect 6 0 5 0;
#X connect 7 0 10 0;
#X connect 8 0 33 0;
#X connect 9 0 24 0;
#X connect 10 0 9 1;
#X connect 11 0 16 0;
#X connect 12 0 18 0;
#X connect 13 0 12 0;
#X connect 14 0 13 0;
#X connect 15 0 14 0;
#X connect 16 0 17 0;
#X connect 17 0 7 0;
#X connect 18 0 23 0;
#X connect 19 0 22 0;
#X connect 20 0 19 0;
#X connect 21 0 25 0;
#X connect 22 0 23 1;
#X connect 23 0 24 1;
#X connect 24 0 8 0;
#X connect 25 0 20 0;
#X connect 26 0 16 0;
#X connect 27 0 5 0;
#X connect 32 0 2 0;
#X connect 33 0 31 0;
#X restore 358 144 pd overheat;
#X obj 356 78 r oscreload;
#X obj 397 197 *~ 1.1;
#X obj 295 196 *~ 1.1;
#X obj 245 196 *~ 0.9;
#X obj 349 196 *~ 0.9;
#X connect 1 0 0 0;
#X connect 5 0 7 0;
#X connect 7 0 10 0;
#X connect 8 0 7 0;
#X connect 11 0 21 0;
#X connect 11 0 22 0;
#X connect 13 0 11 0;
#X connect 14 0 15 0;
#X connect 15 0 12 0;
#X connect 15 0 12 1;
#X connect 16 0 17 0;
#X connect 17 0 12 0;
#X connect 17 0 12 1;
#X connect 18 0 20 0;
#X connect 18 0 23 0;
#X connect 19 0 18 0;
#X connect 20 0 12 1;
#X connect 21 0 12 1;
#X connect 22 0 12 0;
#X connect 23 0 12 0;
